<svg id="Layer_1" data-name="Layer 1" xmlns="http://www.w3.org/2000/svg" viewBox="0 0 300 300"><defs><style>.cls-1{fill:#21140d;}.cls-2{fill:#dabcaa;}.cls-3{fill:#231f20;}.cls-4{fill:#db9c94;}.cls-5{fill:#003863;}.cls-6{fill:#00a79d;}.cls-7{fill:#414042;}.cls-8{fill:#fff;}</style></defs><title>Artboard 11</title><path class="cls-1" d="M203.56,143.16c0-5.68-3.17-10.5-7.59-12.33a14.3,14.3,0,0,0,2.06-7.48,14.12,14.12,0,0,0-3.12-9c-1-6-5.68-10.61-11.28-10.61-6.35,0-11.5,5.88-11.5,13.13h0c-5.32,0-9.78,4.13-11.1,9.73a10.65,10.65,0,0,0-7.53-3.23,10.23,10.23,0,0,0-3.5.62,10.23,10.23,0,0,0-3.5-.62,10.65,10.65,0,0,0-7.53,3.23c-1.32-5.6-5.78-9.73-11.1-9.73h0c0-7.25-5.15-13.13-11.5-13.13-5.6,0-10.26,4.57-11.29,10.61a14.54,14.54,0,0,0-1,16.45c-4.42,1.83-7.59,6.65-7.59,12.33A13.57,13.57,0,0,0,102,154.38c0,.14,0,.27,0,.4,0,7.26,5.15,13.14,11.5,13.14a11.12,11.12,0,0,0,9.24-5.33,11.09,11.09,0,0,0,9.23,5.33c6.35,0,11.5-5.88,11.5-13.14a14.61,14.61,0,0,0-1.32-6.11,10.19,10.19,0,0,0,4.38,1A10,10,0,0,0,150,149a10,10,0,0,0,3.5.63,10.19,10.19,0,0,0,4.38-1,14.61,14.61,0,0,0-1.32,6.11c0,7.26,5.15,13.14,11.5,13.14a11.09,11.09,0,0,0,9.23-5.33,11.12,11.12,0,0,0,9.24,5.33c6.35,0,11.5-5.88,11.5-13.14,0-.13,0-.26,0-.4A13.57,13.57,0,0,0,203.56,143.16Zm-67.49-.62c0-.08.07-.17.11-.25l.15.36Zm27.6.11.15-.36c0,.08.07.17.11.25Z"/><rect class="cls-2" x="142.66" y="128.02" width="14.69" height="16.8"/><path class="cls-2" d="M189.77,202.17l-9.17-35-8,2.91,9.63,36.8h0c-.08,1.77.19,4,1.83,5.23,2.93,2.15,2-1.86,2-1.86a7.74,7.74,0,0,0,9.14-2.25C198.08,204.39,192.56,202.75,189.77,202.17Z"/><path class="cls-2" d="M110.23,202.17l9.17-35,8,2.91-9.64,36.8h0c.08,1.77-.2,4-1.83,5.23-2.93,2.15-2-1.86-2-1.86a7.75,7.75,0,0,1-9.15-2.25C101.92,204.39,107.44,202.75,110.23,202.17Z"/><polygon class="cls-3" points="120.1 264.1 143.77 264.1 143.83 256.16 126.89 256.16 120.1 264.1"/><polygon class="cls-3" points="179.82 264.1 156.15 264.1 156.09 256.16 173.03 256.16 179.82 264.1"/><path class="cls-2" d="M196,91.38a46,46,0,1,1-46-46A46,46,0,0,1,196,91.38Z"/><path class="cls-3" d="M134.48,92.38a6.6,6.6,0,1,1-6.59-6.59A6.59,6.59,0,0,1,134.48,92.38Z"/><path class="cls-3" d="M178.71,92.38a6.6,6.6,0,1,1-6.6-6.59A6.6,6.6,0,0,1,178.71,92.38Z"/><path class="cls-4" d="M137.71,117.19h24.58S162.29,129,150,129,137.71,117.19,137.71,117.19Z"/><polygon class="cls-5" points="172.67 237.02 172.15 214.51 150 214.51 127.85 214.51 127.32 237.02 126.88 256.18 143.83 256.18 146.74 237.02 147.78 230.18 151.77 230.17 152.93 237.02 156.17 256.18 173.12 256.18 172.67 237.02"/><path class="cls-6" d="M150,141.13a65.38,65.38,0,0,1-16.12-2L119,215.83l62.09.17-14.94-76.88A65.38,65.38,0,0,1,150,141.13Z"/><path class="cls-7" d="M196.27,91.15,196,87l-6.1,3.52v-4c0-3-3.1-5.44-6.91-5.44H160.51c-3.81,0-6.91,2.44-6.91,5.44v4a11.71,11.71,0,0,0-3.87-.62,12.4,12.4,0,0,0-4.1.72V86.48c0-3-3.1-5.44-6.91-5.44H116.26c-3.8,0-6.9,2.44-6.9,5.44v4L104,87.69l-.15,4.21,5.49,2.91v4c0,3,3.1,5.44,6.9,5.44h22.46c3.81,0,6.91-2.44,6.91-5.44V94.69a8.37,8.37,0,0,1,4.17-1.25h0a6.71,6.71,0,0,1,3.8,1.22v4.2c0,3,3.1,5.44,6.91,5.44H183c3.81,0,6.91-2.44,6.91-5.44v-4Zm-55.14,7.71a2.2,2.2,0,0,1-2.41,1.9H116.26a2.2,2.2,0,0,1-2.4-1.9V86.48a2.2,2.2,0,0,1,2.4-1.9h22.46a2.2,2.2,0,0,1,2.41,1.9Zm44.24,0a2.2,2.2,0,0,1-2.41,1.9H160.51a2.2,2.2,0,0,1-2.41-1.9V86.48a2.2,2.2,0,0,1,2.41-1.9H183a2.2,2.2,0,0,1,2.41,1.9Z"/><path class="cls-8" d="M109.88,201l9.09,7.3,10.21-45L119,215.83l14.91,0,7.8-75.27c-2.66-.28-7.8-1.48-7.8-1.48C121.42,144.43,109.88,201,109.88,201Z"/><path class="cls-8" d="M190.19,201.1s-11.54-56.54-24-61.85c0,0-5.15,1.2-7.8,1.48l7.8,75.27,14.91,0-10.21-52.53,10.21,45Z"/><path class="cls-1" d="M196.76,65.78c-5.71-13.09-19.74-29.88-46-29.88H150c-26.31,0-40.35,16.79-46,29.88-2.91,6.67-3.58,20.21,0,30,0,0,1.52-25.25,8.46-25.29,2.91,0,5.33-5.86,7.11-7.71a11.66,11.66,0,0,0,6.08,1.67,11,11,0,0,0,8.25-3.47,11.54,11.54,0,0,0,16.5,0,11.54,11.54,0,0,0,16.5,0,11,11,0,0,0,8.26,3.47,11.66,11.66,0,0,0,6.08-1.67c1.78,1.85,4.19,7.7,7.11,7.71,6.94,0,8.46,25.29,8.46,25.29C200.34,86,199.67,72.45,196.76,65.78Z"/><path class="cls-3" d="M119.06,80.06a5.49,5.49,0,0,1,.31-.64A7.21,7.21,0,0,1,120.53,78a8.12,8.12,0,0,1,1-.84,7.52,7.52,0,0,1,1.21-.75,8.65,8.65,0,0,1,1.42-.6,9.73,9.73,0,0,1,1.55-.37c.53-.07,1.06-.08,1.59-.1s1,.11,1.52.16.94.24,1.37.36a10.7,10.7,0,0,1,1.16.48,8,8,0,0,1,1.58,1c.36.27.56.44.56.44l-.71-.07-.77-.11a8.66,8.66,0,0,0-1-.12c-.36,0-.73-.1-1.13-.13s-.83,0-1.25-.06-.87,0-1.32,0-.89.07-1.32.15a11.22,11.22,0,0,0-1.31.25l-.64.15-.62.19c-.4.13-.78.29-1.16.43s-.72.3-1,.47A21.59,21.59,0,0,0,119.06,80.06Z"/><path class="cls-3" d="M180.94,80.06a21.59,21.59,0,0,0-2.14-1.19c-.32-.17-.68-.3-1-.47s-.76-.3-1.16-.43l-.62-.19-.64-.15a11.22,11.22,0,0,0-1.31-.25c-.44-.08-.89-.08-1.33-.15s-.88,0-1.31,0-.84.05-1.25.06-.77.1-1.14.13a8.76,8.76,0,0,0-1,.12l-.77.11-.71.07s.19-.17.55-.44a8.49,8.49,0,0,1,1.59-1,10.7,10.7,0,0,1,1.16-.48c.43-.12.89-.26,1.37-.36s1-.13,1.52-.16,1.06,0,1.59.1a10,10,0,0,1,1.55.37,8.65,8.65,0,0,1,1.42.6,8,8,0,0,1,1.21.75,8.12,8.12,0,0,1,1,.84,7.1,7.1,0,0,1,1.15,1.47A4.89,4.89,0,0,1,180.94,80.06Z"/></svg>