<svg id="Layer_1" data-name="Layer 1" xmlns="http://www.w3.org/2000/svg" viewBox="0 0 300 300"><defs><style>.cls-1{fill:#e7bda7;}.cls-2{fill:#1e1012;}.cls-3{fill:#230000;}.cls-4{fill:#231f20;}.cls-5{fill:#db9c94;}.cls-6{fill:#fff;}.cls-7{fill:none;}.cls-8{fill:#007dc5;}.cls-9{fill:#2e1705;}.cls-10{fill:#003258;}.cls-11{fill:#76a1ad;}.cls-12{fill:#cf007b;}.cls-13{fill:#c00072;}.cls-14{fill:#ec008c;}</style></defs><title>Artboard 19</title><path class="cls-1" d="M126.66,263.16H140c-1.24-1.16-4.24-3-10.85-3.46Z"/><polygon class="cls-2" points="143.21 263.16 139.96 263.16 126.66 263.16 125.36 265 144.93 265 144.94 263.16 143.21 263.16"/><path class="cls-2" d="M136.82,257.07H131l-.72,1-1.14,1.61c6.61.43,9.61,2.3,10.85,3.46h3.25C141.46,259.49,139.11,257.77,136.82,257.07Z"/><path class="cls-2" d="M145,257.3l-4.36,2.08a12,12,0,0,1,1.29,1.55l3.05-1.46Z"/><path class="cls-1" d="M141.91,260.93a15.43,15.43,0,0,1,1.3,2.23h1.73l0-3.69Z"/><path class="cls-1" d="M147.8,233.35H131.4l-.07,4.6L131,257.09h5.9a9.08,9.08,0,0,1,3.76,2.29L145,257.3v-.23h0l2.4-19.12Z"/><path class="cls-2" d="M137.05,256.62a1.14,1.14,0,0,0-.78-.91,1,1,0,0,0-1.37-1.38,1.11,1.11,0,0,0-.9-.79,1.12,1.12,0,0,0-1,.61,1,1,0,0,0-1.59,1.1,1.15,1.15,0,0,0-.94.75,2.2,2.2,0,0,1,.19,2.3,1.14,1.14,0,0,0,1,.59,1.16,1.16,0,0,0,.58,1.05,1.15,1.15,0,0,0,1.18-.22,1.1,1.1,0,0,0,1.11.43,1.13,1.13,0,0,0,.76-.93,1.13,1.13,0,0,0,1.14-.38,2.19,2.19,0,0,1,.61-2.22Z"/><path class="cls-1" d="M173.17,263.16H159.88c1.24-1.16,4.23-3,10.84-3.46Z"/><polygon class="cls-2" points="156.63 263.16 159.88 263.16 173.17 263.16 174.47 265 154.91 265 154.89 263.16 156.63 263.16"/><path class="cls-2" d="M163,257.07h5.85l.72,1,1.14,1.61c-6.61.43-9.6,2.3-10.84,3.46h-3.25C158.37,259.49,160.73,257.77,163,257.07Z"/><path class="cls-2" d="M154.85,257.3l4.37,2.08a12.09,12.09,0,0,0-1.3,1.55l-3-1.46Z"/><path class="cls-1" d="M157.92,260.93a14.55,14.55,0,0,0-1.29,2.23h-1.74l0-3.69Z"/><path class="cls-1" d="M152,233.35h16.4l.07,4.6.37,19.14H163a9,9,0,0,0-3.75,2.29l-4.37-2.08v-.23h0L152.45,238Z"/><path class="cls-2" d="M162.78,256.62a2.13,2.13,0,0,0,1-2.1,1.15,1.15,0,0,1,1.19-.19,1,1,0,0,1,1.93-.18,1.13,1.13,0,0,1,1.2,0,2.2,2.2,0,0,0,1.33,1.88,1.13,1.13,0,0,1-.42,1.12,1,1,0,0,1-.81,1.77,1.89,1.89,0,0,1-3.63.33,24.75,24.75,0,0,1-1.75-2.6Z"/><path class="cls-2" d="M191.82,157.93s2.78,21.15-6,24.48c0,0,4.16-5.83,0-8s-4.5-10.75.83-12.36S191.82,157.93,191.82,157.93Z"/><path class="cls-2" d="M117.92,157.93s2.77,21.15-6,24.48c0,0,4.16-5.83,0-8s-4.49-10.75.83-12.36S117.92,157.93,117.92,157.93Z"/><path class="cls-3" d="M116.92,158.92s-2.77,21.15,6,24.48c0,0-4.16-5.82,0-8s4.49-10.75-.83-12.37S116.92,158.92,116.92,158.92Z"/><path class="cls-2" d="M121.72,155.61s-2.77,21.15,6,24.48c0,0-4.16-5.83,0-8s4.49-10.76-.83-12.37S121.72,155.61,121.72,155.61Z"/><path class="cls-2" d="M197.77,171.16,192,74.06l-91.49,3.61,2.64,93.49S144.47,167.2,197.77,171.16Z"/><rect class="cls-1" x="143.1" y="127.07" width="14.67" height="16.78"/><path class="cls-1" d="M195.83,90.48a45.4,45.4,0,0,1-45.39,45.4c-25.07,0-43.27-20.42-45.4-45.4-2.32-27.14,19.69-46,45.4-45.39C175.5,45.64,195.83,65.41,195.83,90.48Z"/><path class="cls-4" d="M134.94,91.48a6.59,6.59,0,1,1-6.59-6.59A6.59,6.59,0,0,1,134.94,91.48Z"/><path class="cls-4" d="M179.11,91.48a6.59,6.59,0,1,1-6.59-6.59A6.59,6.59,0,0,1,179.11,91.48Z"/><path class="cls-5" d="M138.16,116.26h24.55s0,11.75-12.27,11.75S138.16,116.26,138.16,116.26Z"/><path class="cls-2" d="M119.55,82a3.54,3.54,0,0,1,.31-.64A7.12,7.12,0,0,1,121,79.84a9.12,9.12,0,0,1,1-.83,8,8,0,0,1,1.21-.75,8.65,8.65,0,0,1,1.42-.6,9.72,9.72,0,0,1,1.55-.36c.53-.08,1.06-.08,1.58-.11s1,.11,1.52.16.94.24,1.37.36a9,9,0,0,1,1.16.49,7.62,7.62,0,0,1,1.58,1c.36.27.55.43.55.43s-.26,0-.7-.06c-.22,0-.48-.06-.77-.12s-.63-.07-1-.11-.74-.1-1.14-.13-.83,0-1.25-.07-.87,0-1.31,0-.89.07-1.33.14-.88.13-1.3.26l-.64.15-.62.19c-.4.13-.78.29-1.16.43s-.71.3-1,.47A20.23,20.23,0,0,0,119.55,82Z"/><path class="cls-2" d="M181.34,82a20.63,20.63,0,0,0-2.13-1.19c-.31-.17-.68-.3-1-.47s-.76-.3-1.16-.43l-.61-.19-.64-.15c-.43-.13-.87-.17-1.31-.26s-.89-.07-1.33-.14-.88,0-1.31,0-.84.06-1.25.07-.77.1-1.13.13-.7,0-1,.11-.55.09-.77.12c-.44,0-.7.06-.7.06s.19-.16.55-.43a7.47,7.47,0,0,1,1.59-1,8.83,8.83,0,0,1,1.15-.49c.43-.12.89-.25,1.37-.36s1-.13,1.52-.16,1.06,0,1.59.11a10.25,10.25,0,0,1,1.55.36,8.92,8.92,0,0,1,1.41.6,7.52,7.52,0,0,1,1.21.75,9.12,9.12,0,0,1,1,.83A7.12,7.12,0,0,1,181,81.32,3.54,3.54,0,0,1,181.34,82Z"/><path class="cls-2" d="M153.66,35.06C173,34,202,46,198.18,86.92c0,0-37.59-11.62-49.82-26.1-1.47-1.74-2.73-3.36-3.81-4.86C131.93,60,110,78.2,101,95.9,101,95.9,89.67,33,153.66,35.06Z"/><path class="cls-1" d="M176.79,144.89l5.93,21.29h0l2.39,8.65v0h0l7.27,26.3c3,.58,8.78,2.21,5.7,5.8-4,4.72-9.65,2.25-9.65,2.25s1,4-2.1,1.86c-1.73-1.2-2-3.46-1.93-5.23h0l-9.13-33h0l-9.08-29-6.06-4.33C175.05,137.22,176.79,144.89,176.79,144.89Z"/><path class="cls-1" d="M124.09,144.89l-5.94,21.29h0l-2.39,8.65v0h0l-7.28,26.3c-2.95.58-8.77,2.21-5.7,5.8,4,4.72,9.66,2.25,9.66,2.25s-1,4,2.1,1.86c1.72-1.2,2-3.46,1.93-5.23h0l9.13-33h0l9.07-29,6.06-4.33C125.83,137.22,124.09,144.89,124.09,144.89Z"/><path class="cls-1" d="M150.44,139.24c-5.84,0-11,.73-16.71-.18l-2,71.29H168.4l-1.16-71.26C161.27,140,156.28,139.24,150.44,139.24Z"/><path class="cls-6" d="M167.66,138.6c-1.77.43-3.73,0-5.54.28,0,.31,0,.62,0,.94,0,9-11.66,16.36-11.66,16.36s-11.68-7.33-11.68-16.36c0-.32,0-.63,0-.94-1.81-.29-3.75,0-5.52-.4l-1.58,71.09H168.4Z"/><path class="cls-2" d="M187.72,146.41s-6,6.93-3.83,20.48-8.26,18.2-8.26,18.2-6.37,4.28-4.34,11.37c0,0-7-5.64-.36-16.78s6.17-15.32,4.37-20.84-2.16-13.17,2.28-19.6"/><path class="cls-2" d="M117.41,130.16s13.52,12.57,5.21,18.74.44,24,.44,24c-6.59-4.33-8.92-22.38-6.32-26.78s-5.21-18-5.21-18"/><path class="cls-2" d="M135,137s-4.42,11.17,5.26,25.49-1.73,25.27-1.73,25.27-6.25,8.35,0,15.34c0,0-10.83-2.43-8.93-19,.68-6,4.2-20.15-1-25.47s-13.25-14.6-10.63-24.37"/><path class="cls-2" d="M166.2,137.89s3.44,11.68-.86,17.92-.32,15,1.15,17.73c0,0,1.35-10.5,4.61-11.23,8.94-2,8.94-25.78,8.94-25.78"/><path class="cls-2" d="M198.51,80.55s-1.63,19.61.46,28.85-.46,18.64-.46,18.64.56-15.15-4.44-15.15-3.5-37.2-3.5-37.2-.78,15-3.51,20.22c0,0,1.77-18.15-1.73-19.18s-2.08-11.28-2.08-11.28Z"/><path class="cls-2" d="M103.39,164.56s-2.78,21.15,6,24.48c0,0-4.16-5.83,0-8s4.5-10.76-.83-12.37S103.39,164.56,103.39,164.56Z"/><path class="cls-2" d="M197.3,163.23s3,22.48-5.77,25.81c0,0,4.16-5.83,0-8s-4.49-10.76.83-12.37S197.3,163.23,197.3,163.23Z"/><polygon class="cls-7" points="148.24 228.59 147.8 233.35 152.03 233.35 151.54 228.58 148.24 228.59"/><polygon class="cls-8" points="168.37 208.76 150.06 208.76 131.74 208.76 131.38 233.35 147.78 233.35 148.22 228.59 151.52 228.58 152.01 233.35 168.74 233.35 168.37 208.76"/><polygon class="cls-9" points="131.73 210.35 131.65 215.91 168.47 215.91 168.38 210.35 131.73 210.35"/><rect class="cls-10" x="132.64" y="209.96" width="1.48" height="6.51"/><rect class="cls-10" x="144.45" y="209.96" width="1.48" height="6.51"/><rect class="cls-10" x="166" y="209.96" width="1.48" height="6.51" transform="translate(333.47 426.43) rotate(-180)"/><rect class="cls-10" x="154.19" y="209.96" width="1.48" height="6.51" transform="translate(309.85 426.43) rotate(-180)"/><polygon class="cls-11" points="130.88 231.33 130.72 234.68 147.94 234.68 148.23 231.33 130.88 231.33"/><polygon class="cls-11" points="168.96 231.33 169.11 234.68 151.89 234.68 151.6 231.33 168.96 231.33"/><path class="cls-12" d="M145.82,152.83s11.63,7.46,11.77,16c0,0,4.13,0,4.18-8s6-17.7,6-17.7Z"/><path class="cls-13" d="M143.86,143.77a28.25,28.25,0,0,0,19-2.32c7.82-3.88,6.11,4.08,4.08,5.14s-19.14,6.08-22.59,9.38c0,0,1-6.21-2.85-5.51S135.69,142.21,143.86,143.77Z"/><path class="cls-14" d="M139,137.15c7.28.58,7.37,5.51,21.79.77,0,0,8.37-2.27,6.85,3.35s-29.11,5.27-29.5,14.7C138.11,156,127.27,136.23,139,137.15Z"/></svg>