<svg id="Layer_1" data-name="Layer 1" xmlns="http://www.w3.org/2000/svg" viewBox="0 0 300 300"><defs><style>.cls-1{fill:#f5e0cd;}.cls-2{fill:#231f20;}.cls-3{fill:#e0ada6;}.cls-4{fill:#03406d;}.cls-5{fill:#58595b;}.cls-6,.cls-8{fill:#fff;}.cls-7,.cls-8{fill-rule:evenodd;}</style></defs><title>Artboard 8</title><circle class="cls-1" cx="148.62" cy="85.48" r="46"/><circle class="cls-2" cx="126.5" cy="85.48" r="6.6"/><path class="cls-2" d="M177.34,85.48a6.6,6.6,0,1,1-6.6-6.59A6.59,6.59,0,0,1,177.34,85.48Z"/><path class="cls-3" d="M136.33,111.31h24.59s0,11.77-12.3,11.77S136.33,111.31,136.33,111.31Z"/><path class="cls-2" d="M146.52,43.42c-25.44-1.28-37.15-3.84-43.56,3.13-11.64,12.69-.28,39.15-.28,39.15s.6-22.33,13.13-27c11.78-4.38,37.68-13.18,67.34,1.25,14,6.83,10.33,36.2,10.33,36.2s13-28.4,4.37-43.54C186.06,32,146.52,43.42,146.52,43.42Z"/><polygon class="cls-4" points="148.76 221.7 124.54 221.7 123.48 268.42 142.01 268.42 146.33 239.27 150.69 239.26 155.51 268.42 174.03 268.42 172.97 221.7 148.76 221.7"/><rect class="cls-1" x="141.41" y="126.05" width="14.69" height="16.8"/><path class="cls-1" d="M190.18,207.86l-9.7-39.26L172,171.86l10.2,41.27h0c-.08,2,.21,4.53,1.94,5.87,3.1,2.41,2.1-2.09,2.1-2.09a7.91,7.91,0,0,0,9.69-2.52C199,210.35,193.15,208.51,190.18,207.86Z"/><path id="_Path_" data-name="&lt;Path&gt;" class="cls-1" d="M107.33,207.86,117,168.6l8.52,3.26-10.2,41.27h0c.08,2-.21,4.53-1.94,5.87-3.1,2.41-2.11-2.09-2.11-2.09a7.89,7.89,0,0,1-9.68-2.52C98.53,210.35,104.37,208.51,107.33,207.86Z"/><polygon class="cls-2" points="116.11 278.83 141.94 278.83 142.01 268.4 123.52 268.4 116.11 278.83"/><polygon class="cls-2" points="181.43 278.83 155.6 278.83 155.53 268.4 174.02 268.4 181.43 278.83"/><path class="cls-2" d="M181.05,213.47l9.8-5.61s-14.82-68.05-25-70.7l-1.17,10.11Z"/><path class="cls-2" d="M116.61,213.47l-9.8-5.61s14.82-68.05,25-70.7L133,147.27Z"/><path class="cls-5" d="M195.36,84.41l-.29-4.17L189,83.76v-4c0-3-3.1-5.44-6.91-5.44H159.6c-3.81,0-6.9,2.44-6.9,5.44v4a11.54,11.54,0,0,0-3.87-.62,12.73,12.73,0,0,0-4.11.71V79.74c0-3-3.1-5.44-6.91-5.44H115.36c-3.81,0-6.91,2.44-6.91,5.44v4L103.12,81,103,85.16l5.49,2.91v4.05c0,3,3.1,5.44,6.91,5.44h22.45c3.81,0,6.91-2.44,6.91-5.44V88a8.36,8.36,0,0,1,4.17-1.26h0a6.78,6.78,0,0,1,3.81,1.23v4.2c0,3,3.09,5.44,6.9,5.44h22.45c3.81,0,6.91-2.44,6.91-5.44V88.07Zm-55.14,7.71a2.21,2.21,0,0,1-2.41,1.9H115.36a2.21,2.21,0,0,1-2.41-1.9V79.74a2.2,2.2,0,0,1,2.41-1.9h22.45a2.2,2.2,0,0,1,2.41,1.9Zm44.24,0a2.21,2.21,0,0,1-2.41,1.9H159.6a2.21,2.21,0,0,1-2.41-1.9V79.74a2.2,2.2,0,0,1,2.41-1.9h22.45a2.2,2.2,0,0,1,2.41,1.9Z"/><path class="cls-2" d="M202.29,37.07s-15.63,46-70.08,16.06c0,0-6.18.61,8.32-17.89C156,15.54,187.46,57.71,202.29,37.07Z"/><path class="cls-2" d="M186.35,55.67s-5.26-34.5-42.34-34.5c-25.66,0-48.25,34-41.39,32.12C123.38,47.52,187.88,33.83,186.35,55.67Z"/><rect class="cls-2" x="171.84" y="62.35" width="4.44" height="14.33" transform="translate(65.64 222.4) rotate(-76.43)"/><rect class="cls-2" x="116.02" y="67.3" width="14.34" height="4.44" transform="translate(-12.87 30.84) rotate(-13.57)"/><path class="cls-6" d="M148.75,139.41a65.94,65.94,0,0,1-17.06-2.25L118.53,225.8H179l-13.16-88.64A66,66,0,0,1,148.75,139.41Z"/><path class="cls-7" d="M157,175.23a4.67,4.67,0,0,1-3-1.17,5.22,5.22,0,0,1-1.82-3.15,3.58,3.58,0,0,1,.64-2.88,3,3,0,0,1,2-1.17,4.32,4.32,0,0,1,3.31.94,5.2,5.2,0,0,1,1.22,1.3,4.94,4.94,0,0,1,.87,2.93,3.34,3.34,0,0,1-.9,2.22,3,3,0,0,1-1.84.93C157.26,175.21,157.08,175.21,157,175.23Zm-1.82-5.65a.75.75,0,0,0-.7-.77.74.74,0,0,0-.71.76.71.71,0,1,0,1.41,0Z"/><path class="cls-7" d="M140.92,175.23a3.28,3.28,0,0,1-2-.7,3.16,3.16,0,0,1-1.12-1.94,4.54,4.54,0,0,1,.65-3.23,5.09,5.09,0,0,1,3-2.38,3.51,3.51,0,0,1,2.57.15,3,3,0,0,1,1.69,2.11,4.41,4.41,0,0,1-.43,3.14,5.31,5.31,0,0,1-3.69,2.8C141.32,175.21,141.12,175.21,140.92,175.23Zm1.79-5.66a.71.71,0,1,0,1.41,0,.75.75,0,0,0-.69-.8A.73.73,0,0,0,142.71,169.57Z"/><path class="cls-7" d="M163.81,164l-.54-.81-.47-.64c-.22-.26-.45-.53-.69-.78s-.57-.56-.87-.82-.48-.41-.73-.6-.49-.39-.75-.57-.49-.33-.74-.49l-.59-.38c-.14-.09-.29-.16-.44-.24l-.52-.29-.31-.14-.32-.17-.29-.14a2.67,2.67,0,0,1,1.1-1,3.67,3.67,0,0,1,2.06-.35,5.43,5.43,0,0,1,2.14.68,6.17,6.17,0,0,1,1.43,1.11,5.43,5.43,0,0,1,1.36,2.28,3.42,3.42,0,0,1-.18,2.55,2.61,2.61,0,0,1-.54.73Z"/><path class="cls-7" d="M141.31,157.94l-.38.2-.59.3-.46.23-.5.29-.38.23-.47.31-.53.35c-.22.15-.43.32-.64.48l-.44.36c-.27.23-.54.46-.79.7s-.49.5-.72.76l-.59.73c-.12.16-.26.32-.37.49s-.18.29-.27.43L134,164a1.83,1.83,0,0,1-.45-.47,3.37,3.37,0,0,1-.3-3.14,5.34,5.34,0,0,1,1.15-1.89,6.12,6.12,0,0,1,2.54-1.68,4.47,4.47,0,0,1,2.11-.24A3,3,0,0,1,141.31,157.94Z"/><path class="cls-7" d="M152.34,176.88l.29.19c.08,0,.05.09,0,.14a1.84,1.84,0,0,1-.75.88,2.24,2.24,0,0,1-2.77-.3c-.08-.08-.14-.17-.22-.25a2.11,2.11,0,0,1-.19.23,2.23,2.23,0,0,1-3.17,0,3.72,3.72,0,0,1-.37-.57c0-.07,0-.12.05-.16a3,3,0,0,0,.26-.16,2.63,2.63,0,0,0,.31.48,1.75,1.75,0,0,0,2.59,0,1,1,0,0,0,.25-.87c0-.12-.05-.25-.06-.37s-.09-.16-.21-.18a2.48,2.48,0,0,1-1.22-.47.64.64,0,0,1,0-1.07,2.53,2.53,0,0,1,1.15-.47,3.67,3.67,0,0,1,1.89.15,2.27,2.27,0,0,1,.61.34.62.62,0,0,1,0,1,2.22,2.22,0,0,1-1.07.45l-.36.06a.16.16,0,0,0-.08,0,1.49,1.49,0,0,0,.14,1.33,1.58,1.58,0,0,0,.95.54,1.75,1.75,0,0,0,1.7-.59A3.14,3.14,0,0,0,152.34,176.88Z"/><path class="cls-8" d="M155.14,169.58a.71.71,0,1,1-1.41,0,.74.74,0,0,1,.71-.76A.75.75,0,0,1,155.14,169.58Z"/><path class="cls-8" d="M142.71,169.57a.73.73,0,0,1,.72-.76.75.75,0,0,1,.69.8.71.71,0,1,1-1.41,0Z"/></svg>