<svg id="Layer_1" data-name="Layer 1" xmlns="http://www.w3.org/2000/svg" viewBox="0 0 300 300"><defs><style>.cls-1{fill:#2080bb;}.cls-2{fill:#f0d0b4;}.cls-3{fill:#ecc19c;}.cls-4{fill:#231f20;}.cls-5{fill:#ed1c24;}.cls-6{fill:#cb8c84;}.cls-7{fill:#2d1b12;}.cls-8{fill:#808285;}</style></defs><title>Artboard 1</title><polygon class="cls-1" points="151.13 229.08 120.26 229.08 118.91 270.75 142.53 270.75 148.04 244.75 153.6 244.74 159.74 270.75 183.36 270.75 182.01 229.08 151.13 229.08"/><rect class="cls-2" x="143.79" y="142.59" width="14.69" height="16.8"/><path class="cls-3" d="M197.85,216.74l-10.77-35-9.46,2.91L189,221.44h0c-.09,1.77.23,4,2.15,5.23,3.45,2.15,2.34-1.86,2.34-1.86s6.25,2.48,10.74-2.25C207.62,219,201.14,217.32,197.85,216.74Z"/><path class="cls-3" d="M104.42,216.74l10.77-35,9.45,2.91-11.32,36.8h0c.09,1.77-.23,4-2.15,5.23-3.45,2.15-2.34-1.86-2.34-1.86s-6.25,2.48-10.75-2.25C94.65,219,101.13,217.32,104.42,216.74Z"/><polygon class="cls-4" points="109.52 280.03 142.44 280.03 142.53 270.73 118.96 270.73 109.52 280.03"/><polygon class="cls-4" points="192.79 280.03 159.86 280.03 159.77 270.73 183.35 270.73 192.79 280.03"/><path class="cls-5" d="M192.93,184.28s-11.53-28.22-22.86-30.59v0a90.19,90.19,0,0,1-37.87,0v0c-11.33,2.37-22.86,30.59-22.86,30.59l14.6,5.8-9.68,42.66H188l-9.72-42.82Z"/><path class="cls-2" d="M197.11,105a46,46,0,1,1-46-46A46,46,0,0,1,197.11,105Z"/><path class="cls-4" d="M135.62,105a6.6,6.6,0,1,1-6.6-6.6A6.59,6.59,0,0,1,135.62,105Z"/><circle class="cls-4" cx="173.25" cy="105.01" r="6.6"/><path class="cls-6" d="M138.84,130.82h24.59s0,11.77-12.3,11.77S138.84,130.82,138.84,130.82Z"/><path class="cls-7" d="M165.75,92.58s3.47-4.54,12.66-.84S166.69,79.75,165.75,92.58Z"/><path class="cls-7" d="M136.52,92.58s-3.47-4.54-12.66-.84S135.58,79.75,136.52,92.58Z"/><path class="cls-8" d="M152.51,190h-.09l7.06-35-.93-.19L151.46,190h-.65l-7.09-35.16-.93.19,7.06,35h-.09a1.77,1.77,0,0,0-1.77,1.77v7.81a1.76,1.76,0,0,0,1.77,1.76h2.75a1.76,1.76,0,0,0,1.77-1.76v-7.81A1.77,1.77,0,0,0,152.51,190Z"/><path class="cls-7" d="M212.84,72.26c-9.9-33.29-40.34-46.4-53.48-50.6a29.34,29.34,0,0,0-6-1.69,1.08,1.08,0,0,1,.3.11l-.49-.11c2.17.26,2.6,8.78,2.69,12.17v.35c-38.29-18.41-55.53-1.91-55.53-1.91,6.49-.59,9.58,8.69,9.58,8.69-32.27,4.44-21.77,42.5-21.77,42.5s3.25-5.91,6.8-7.46C97.64,89.6,105.16,105,105.16,105s1.69-21,12.61-28.81a26.25,26.25,0,0,0,4.56,11.09,33.12,33.12,0,0,1,7.09-11.6C132,78.1,137.35,82.12,148,86.76c0,0,1.31-7.78,7.57-7.63a11.84,11.84,0,0,0,5.94-1.68c1.63,1.27,3.77,2.79,6.6,4.6,14,9,10.75,15.91,10.75,15.91s10.39-4.2,6.85-12.15A6.38,6.38,0,0,1,186,81a46.75,46.75,0,0,0,7,8.62c5.87,6,2.88,25.84,2.88,25.84s12.68-17.59,14.94-24.38C215.1,78.36,212.84,72.26,212.84,72.26Z"/></svg>