<svg id="Layer_1" data-name="Layer 1" xmlns="http://www.w3.org/2000/svg" viewBox="0 0 300 300"><defs><style>.cls-1{fill:#0a497a;}.cls-2{fill:#e7bda7;}.cls-3{fill:#231f20;}.cls-4{fill:#db9c94;}.cls-5,.cls-8{fill:#492c1c;}.cls-6{fill:#a97c50;}.cls-7{fill:#002b52;}.cls-8{opacity:0.3;}.cls-9{fill:#1b75bc;}.cls-10{fill:#155e98;}.cls-11{fill:#196bac;}</style></defs><title>Artboard 7</title><rect class="cls-1" x="137.28" y="136.43" width="25.58" height="6.42"/><rect class="cls-2" x="142.66" y="128.53" width="14.69" height="16.8"/><path class="cls-2" d="M196.72,202.69l-10.77-35-9.46,2.9,11.32,36.8h0c-.09,1.77.23,4,2.15,5.23,3.44,2.14,2.34-1.86,2.34-1.86s6.24,2.47,10.74-2.25C206.48,204.9,200,203.26,196.72,202.69Z"/><path class="cls-2" d="M103.28,202.69l10.78-35,9.45,2.9-11.32,36.8h0c.09,1.77-.23,4-2.15,5.23-3.44,2.14-2.33-1.86-2.33-1.86s-6.25,2.47-10.75-2.25C93.52,204.9,100,203.26,103.28,202.69Z"/><path class="cls-2" d="M196,89.07a46,46,0,0,1-92,0c0-11.8,6.32-32.53,13.11-38.33,9.53-8.14,19.28-7.65,32.87-7.65A46,46,0,0,1,196,89.07Z"/><path class="cls-3" d="M134.49,93.07a6.6,6.6,0,1,1-6.6-6.6A6.6,6.6,0,0,1,134.49,93.07Z"/><path class="cls-3" d="M178.71,93.07a6.6,6.6,0,1,1-6.6-6.6A6.6,6.6,0,0,1,178.71,93.07Z"/><path class="cls-4" d="M137.71,114.88h24.58s0,11.77-12.29,11.77S137.71,114.88,137.71,114.88Z"/><path class="cls-5" d="M134.49,84.76s-6.65-2.7-16,2.42C117.14,87.91,127.84,74.31,134.49,84.76Z"/><path class="cls-5" d="M165.51,84.76s6.65-2.7,16,2.42C182.86,87.91,172.16,74.31,165.51,84.76Z"/><polygon class="cls-6" points="109.74 265.97 140.25 265.97 140.33 256.68 118.49 256.68 109.74 265.97"/><polygon class="cls-2" points="142.34 243.07 140.36 256.69 118.48 256.69 118.88 243.07 142.34 243.07"/><polygon class="cls-6" points="191.34 265.97 160.84 265.97 160.75 256.68 182.59 256.68 191.34 265.97"/><polygon class="cls-2" points="158.75 243.07 160.72 256.69 182.61 256.69 182.2 243.07 158.75 243.07"/><polygon class="cls-7" points="183.88 214.11 150.5 212.79 117.12 214.11 116.14 244.44 144.32 244.44 147.15 231.05 153.17 231.04 156.33 244.44 184.87 244.44 183.88 214.11"/><path class="cls-5" d="M117.13,50.74c-1.11.94-1.62,1.58-2.89,2.57-7.69,5.94-13.56,19.69-9.2,45.4,0,0,9.83-11.5,11.19-23.12.13-1.08-.06-1.84.57-2.91C114.33,61.85,115.52,54.86,117.13,50.74Z"/><path class="cls-5" d="M191.8,52.43C187.68,39.68,176.7,29.56,151,36.06c-22.89,5.78-28.13,9.81-33.25,14.19-1.61,4.13-2.79,11.28-.32,22.11C121.22,66,133.83,60.3,150,60.72c18.86-.49,32.88,7.27,33.77,14.87C185.14,87.21,195,98.71,195,98.71,199.32,73,194.78,61.68,191.8,52.43Z"/><path class="cls-8" d="M196,93.33l-5.81-1.67s1.63,13.52-6.47,21.69c-7.81,7.88-17.08,19.79-33.7,19.83s-23.34-12.66-32.87-18.3-7.3-23.22-7.3-23.22L104,93.33A46,46,0,0,0,149.49,135h.31A46.1,46.1,0,0,0,196,93.33Z"/><path class="cls-2" d="M150,213.28l5.61,5.4h31.27l-17.94-78.42c-6.11,1.31-31.77,1.31-37.87,0l-17.95,78.42H144.4Z"/><path class="cls-9" d="M193.17,188.64s-12.9-46.64-24.23-49v0l-3,0c-1.18.25-.1.46-2.47.61L150,158.5l-13.46-18.25c-2.37-.15-1.29-.36-2.48-.61h-3c-11.32,2.36-24.44,49-24.44,49L117,194l6-18.54-9.8,43.18,32,2,4.88-7.44,5.12,7.44,31.76-2-9.74-42.91L183.37,194Z"/><polygon class="cls-10" points="153.34 158.43 161.37 148.15 156.66 149.48 152.52 155.09 152.52 155.09 150 158.5 150 213.24 155.12 220.68 159.04 220.44 154.52 213.24 153.34 158.43"/><polygon class="cls-11" points="146.66 158.43 138.64 148.15 143.35 149.48 147.48 155.09 147.48 155.09 150 158.5 150 213.24 144.89 220.68 140.96 220.44 145.48 213.24 146.66 158.43"/><polygon class="cls-1" points="139.87 149.1 144.78 151.43 143.78 144.87 139.87 149.1"/><polygon class="cls-7" points="137.27 136.44 131.75 140.56 137.28 155.56 143.78 144.87 137.27 136.44"/><polygon class="cls-1" points="160.28 149.1 155.36 151.43 156.36 144.87 160.28 149.1"/><polygon class="cls-7" points="162.87 136.44 168.39 140.56 162.86 155.56 156.36 144.87 162.87 136.44"/><circle class="cls-7" cx="151.87" cy="163.7" r="1.12"/><circle class="cls-7" cx="151.87" cy="172.01" r="1.12"/><circle class="cls-7" cx="151.87" cy="180.89" r="1.12"/><circle class="cls-7" cx="152.1" cy="189.76" r="1.12"/><circle class="cls-7" cx="152.1" cy="198.64" r="1.12"/><circle class="cls-7" cx="152.42" cy="207.51" r="1.12"/><polygon class="cls-1" points="105.99 188.95 117.05 194.83 118.68 190.46 106.62 185.76 105.99 188.95"/><polygon class="cls-1" points="194.16 188.95 183.09 194.83 181.47 190.46 193.53 185.76 194.16 188.95"/></svg>